<svg width="469.3719116210937px" height="121.39999999999999px" xmlns="http://www.w3.org/2000/svg" viewBox="15.314044189453142 14.300000000000004 469.3719116210937 121.39999999999999" style="background: rgba(0, 0, 0, 0);" preserveAspectRatio="xMidYMid"><defs><filter id="editing-hole" x="-100%" y="-100%" width="300%" height="300%"><feFlood flood-color="#000" result="black"></feFlood><feMorphology operator="dilate" radius="2" in="SourceGraphic" result="erode"></feMorphology><feGaussianBlur in="erode" stdDeviation="4" result="blur"></feGaussianBlur><feOffset in="blur" dx="2" dy="2" result="offset"></feOffset><feComposite operator="atop" in="offset" in2="black" result="merge"></feComposite><feComposite operator="in" in="merge" in2="SourceGraphic" result="inner-shadow"></feComposite></filter></defs><g filter="url(#editing-hole)"><g transform="translate(84.97497743368149, 97.46500015258789)"><path d="M27.84-9.86L27.84-9.86L27.84-9.86Q29.06-8.32 29.06-5.34L29.06-5.34L29.06-5.34Q29.06-2.37 26.78-0.54L26.78-0.54L26.78-0.54Q24.51 1.28 20.54 1.28L20.54 1.28L20.54 1.28Q18.24 1.28 14.66 0.77L14.66 0.77L14.66 0.77Q7.62-0.32 5.60-0.32L5.60-0.32L5.60-0.32Q3.58-0.32 2.75-0.22L2.75-0.22L2.75-0.22Q1.92-0.13 0.58 0L0.58 0L8.32-42.24L22.34-42.24L15.94-7.04L15.94-7.04Q16.77-6.91 17.54-6.91L17.54-6.91L19.14-6.91L19.14-6.91Q24.51-6.91 27.84-9.86ZM46.59 0L32.64 0L40.77-42.24L54.85-42.24L46.59 0ZM82.18-20.61L95.10-21.76L95.10-21.76Q90.50-11.65 90.50 0.06L90.50 0.06L90.50 0.06Q88.77 1.28 86.24 1.28L86.24 1.28L86.24 1.28Q83.71 1.28 82.11 0.10L82.11 0.10L82.11 0.10Q80.51-1.09 80.19-2.30L80.19-2.30L80.19-2.30Q78.59-0.64 76 0.32L76 0.32L76 0.32Q73.41 1.28 70.66 1.28L70.66 1.28L70.66 1.28Q67.90 1.28 65.50 0.38L65.50 0.38L65.50 0.38Q63.10-0.51 61.25-2.50L61.25-2.50L61.25-2.50Q57.15-6.85 57.15-15.10L57.15-15.10L57.15-15.10Q57.15-27.90 64-35.58L64-35.58L64-35.58Q71.04-43.52 83.52-43.52L83.52-43.52L83.52-43.52Q92.16-43.52 95.23-39.04L95.23-39.04L95.23-39.04Q96.19-37.63 96.19-35.94L96.19-35.94L96.19-35.94Q96.19-34.24 95.46-32.80L95.46-32.80L95.46-32.80Q94.72-31.36 93.57-30.21L93.57-30.21L93.57-30.21Q90.82-27.65 87.42-27.65L87.42-27.65L87.42-27.65Q86.08-27.65 84.80-28.10L84.80-28.10L84.80-28.10Q85.06-30.02 85.06-32.26L85.06-32.26L85.06-32.26Q85.06-34.50 84.90-35.52L84.90-35.52L84.90-35.52Q84.74-36.54 84.35-37.38L84.35-37.38L84.35-37.38Q83.52-39.10 81.70-39.10L81.70-39.10L81.70-39.10Q79.87-39.10 77.86-37.15L77.86-37.15L77.86-37.15Q75.84-35.20 74.24-32L74.24-32L74.24-32Q70.72-24.83 70.72-16.19L70.72-16.19L70.72-16.19Q70.72-12.22 72.26-9.41L72.26-9.41L72.26-9.41Q73.92-6.34 76.86-6.34L76.86-6.34L76.86-6.34Q77.89-6.34 78.82-6.85L78.82-6.85L78.82-6.85Q79.74-7.36 80.13-7.74L80.13-7.74L82.18-20.61ZM122.11-4.80L122.11-4.80L122.11-4.80Q122.11-9.28 123.90-18.24L123.90-18.24L114.43-18.24L110.91 0L97.54 0L105.66-42.24L119.17-42.24L115.46-23.36L124.93-23.36L128.45-42.24L141.95-42.24L141.95-42.24Q141.06-37.50 139.90-32.19L139.90-32.19L137.73-21.76L137.73-21.76Q135.30-9.60 135.30-4.29L135.30-4.29L135.30-4.29Q135.30-2.11 136-0.90L136-0.90L136-0.90Q132.80 1.28 129.06 1.28L129.06 1.28L129.06 1.28Q125.31 1.28 123.71-0.51L123.71-0.51L123.71-0.51Q122.11-2.30 122.11-4.80ZM148.61-31.17L148.61-31.17L148.61-31.17Q146.43-32.83 146.43-36.38L146.43-36.38L146.43-36.38Q146.43-39.94 148.77-41.79L148.77-41.79L148.77-41.79Q151.10-43.65 155.14-43.65L155.14-43.65L155.14-43.65Q157.70-43.65 163.78-42.75L163.78-42.75L168.13-42.11L168.13-42.11Q170.30-41.86 172.58-41.86L172.58-41.86L172.58-41.86Q174.85-41.86 176.38-42.82L176.38-42.82L176.38-42.82Q178.69-40.77 178.69-37.82L178.69-37.82L178.69-37.82Q178.69-34.88 176.06-32.77L176.06-32.77L176.06-32.77Q173.38-30.53 169.92-30.53L169.92-30.53L169.92-30.53Q168.26-30.53 165.57-30.98L165.57-30.98L165.57-30.98Q162.43-21.12 162.43-14.27L162.43-14.27L162.43-14.27Q162.43-7.42 165.89-3.84L165.89-3.84L165.89-3.84Q164.29-0.96 161.92 0.16L161.92 0.16L161.92 0.16Q159.55 1.28 156 1.28L156 1.28L156 1.28Q152.45 1.28 150.24-0.67L150.24-0.67L150.24-0.67Q148.03-2.62 148.03-6.66L148.03-6.66L148.03-6.66Q148.03-11.33 150.59-19.01L150.59-19.01L150.59-19.01Q153.15-26.62 156.99-32.45L156.99-32.45L156.99-32.45Q155.14-32.64 153.22-32.64L153.22-32.64L153.22-32.64Q149.25-32.64 148.61-31.17ZM183.23 0L176.19 0L183.87-42.24L197.63-42.24L207.62-13.18L212.93-42.24L220.03-42.18L212.22 0L197.57 0L188.35-27.97L183.23 0ZM234.88 0L220.93 0L229.06-42.24L243.14-42.24L234.88 0ZM251.14 0L244.10 0L251.78-42.24L265.54-42.24L275.52-13.18L280.83-42.24L287.94-42.18L280.13 0L265.47 0L256.26-27.97L251.14 0ZM315.46-20.61L328.38-21.76L328.38-21.76Q323.78-11.65 323.78 0.06L323.78 0.06L323.78 0.06Q322.05 1.28 319.52 1.28L319.52 1.28L319.52 1.28Q316.99 1.28 315.39 0.10L315.39 0.10L315.39 0.10Q313.79-1.09 313.47-2.30L313.47-2.30L313.47-2.30Q311.87-0.64 309.28 0.32L309.28 0.32L309.28 0.32Q306.69 1.28 303.94 1.28L303.94 1.28L303.94 1.28Q301.18 1.28 298.78 0.38L298.78 0.38L298.78 0.38Q296.38-0.51 294.53-2.50L294.53-2.50L294.53-2.50Q290.43-6.85 290.43-15.10L290.43-15.10L290.43-15.10Q290.43-27.90 297.28-35.58L297.28-35.58L297.28-35.58Q304.32-43.52 316.80-43.52L316.80-43.52L316.80-43.52Q325.44-43.52 328.51-39.04L328.51-39.04L328.51-39.04Q329.47-37.63 329.47-35.94L329.47-35.94L329.47-35.94Q329.47-34.24 328.74-32.80L328.74-32.80L328.74-32.80Q328.00-31.36 326.85-30.21L326.85-30.21L326.85-30.21Q324.10-27.65 320.70-27.65L320.70-27.65L320.70-27.65Q319.36-27.65 318.08-28.10L318.08-28.10L318.08-28.10Q318.34-30.02 318.34-32.26L318.34-32.26L318.34-32.26Q318.34-34.50 318.18-35.52L318.18-35.52L318.18-35.52Q318.02-36.54 317.63-37.38L317.63-37.38L317.63-37.38Q316.80-39.10 314.98-39.10L314.98-39.10L314.98-39.10Q313.15-39.10 311.14-37.15L311.14-37.15L311.14-37.15Q309.12-35.20 307.52-32L307.52-32L307.52-32Q304.00-24.83 304.00-16.19L304.00-16.19L304.00-16.19Q304.00-12.22 305.54-9.41L305.54-9.41L305.54-9.41Q307.20-6.34 310.14-6.34L310.14-6.34L310.14-6.34Q311.17-6.34 312.10-6.85L312.10-6.85L312.10-6.85Q313.02-7.36 313.41-7.74L313.41-7.74L315.46-20.61Z" fill="#ccc"></path></g></g><style>text {
  font-size: 64px;
  font-family: Arial Black;
  dominant-baseline: central;
  text-anchor: middle;
}</style></svg>