<?xml version="1.0" encoding="UTF-8" standalone="no" ?>
<!DOCTYPE svg PUBLIC "-//W3C//DTD SVG 1.1//EN" "http://www.w3.org/Graphics/SVG/1.1/DTD/svg11.dtd">
<svg xmlns="http://www.w3.org/2000/svg" xmlns:xlink="http://www.w3.org/1999/xlink" version="1.1" width="1080" height="400" viewBox="0 0 1080 400" xml:space="preserve">
<desc>Created with Fabric.js 5.2.4</desc>
<defs>
</defs>
<g transform="matrix(1 0 0 1 540 200)" id="6cf63313-b4ef-4a68-adc5-17348505b312"  >
<rect style="stroke: none; stroke-width: 1; stroke-dasharray: none; stroke-linecap: butt; stroke-dashoffset: 0; stroke-linejoin: miter; stroke-miterlimit: 4; fill: rgb(255,255,255); fill-rule: nonzero; opacity: 1; visibility: hidden;" vector-effect="non-scaling-stroke"  x="-540" y="-200" rx="0" ry="0" width="1080" height="400" />
</g>
<g transform="matrix(Infinity NaN NaN Infinity 0 0)" id="1eba926f-8544-402f-88f4-b638375fcde7"  >
</g>
<g transform="matrix(1.35 0 0 1.35 139.78 200)"  >
<g style="" vector-effect="non-scaling-stroke"   >
		<g transform="matrix(1 0 0 1 18.66 -10.82)" id="path4357"  >
<path style="stroke: rgb(212,0,0); stroke-width: 1; stroke-dasharray: none; stroke-linecap: butt; stroke-dashoffset: 0; stroke-linejoin: miter; stroke-miterlimit: 4; fill: rgb(255,102,0); fill-rule: nonzero; opacity: 1;" vector-effect="non-scaling-stroke"  transform=" translate(-133.2, -560.8)" d="M 120.40039 497.76758 C 104.72275 497.12988 88.759676 501.44624 75.042969 511.05078000000003 L 82.613281 521.8613300000001 C 108.45745 503.76504000000006 143.69276 508.4036300000001 163.97266000000002 532.5722700000001 C 184.25255 556.7409000000001 182.70369000000002 592.2474800000001 160.39453000000003 614.5566400000001 L 169.72461000000004 623.8886700000002 C 196.78863000000004 596.8246500000001 198.68428000000003 553.4096700000001 174.08203000000003 524.0898400000002 C 160.24327000000002 507.5974500000002 140.55736000000002 498.5874800000002 120.40039000000003 497.7675800000002 z" stroke-linecap="round" />
</g>
		<g transform="matrix(1 0 0 1 -7.91 6.67)" id="path4359"  >
<path style="stroke: rgb(212,0,0); stroke-width: 1; stroke-dasharray: none; stroke-linecap: butt; stroke-dashoffset: 0; stroke-linejoin: miter; stroke-miterlimit: 4; fill: rgb(255,204,0); fill-rule: nonzero; opacity: 1;" vector-effect="non-scaling-stroke"  transform=" translate(-106.62, -578.29)" d="M 75.044922 511.04492 C 52.156372000000005 527.07166 40.249176 554.67357 44.298828 582.32031 C 48.348481 609.96706 67.671802 632.9942699999999 94.195312 641.7832 C 120.71882 650.57214 149.96876 643.64062 169.72656 623.88281 L 160.39453 614.5507799999999 C 144.14567 630.7996499999999 120.15870000000001 636.4839 98.345703 629.2558599999999 C 76.532708 622.0278199999999 60.687866 603.1449499999999 57.357422 580.4081999999999 C 54.026978 557.6714599999998 63.789685 535.0358899999999 82.613281 521.8554699999999 L 75.044922 511.0449199999999 z" stroke-linecap="round" />
</g>
		<g transform="matrix(1 0 0 1 -1.12 -2.03)" id="path4363"  >
<path style="stroke: rgb(212,0,0); stroke-width: 1; stroke-dasharray: none; stroke-linecap: butt; stroke-dashoffset: 0; stroke-linejoin: miter; stroke-miterlimit: 4; fill: rgb(255,204,0); fill-rule: nonzero; opacity: 1;" vector-effect="non-scaling-stroke"  transform=" translate(-113.41, -569.59)" d="M 189.10274 502.30697 L 84.814558 579.68207 L 120.13797 581.3641399999999 L 37.716668999999996 636.8723699999999 L 167.23586 571.2717399999999 L 121.82004 569.5896599999999 L 189.10274 502.30696999999986 z" stroke-linecap="round" />
</g>
		<g transform="matrix(1 0 0 1 -12.06 31.61)" id="path4365"  >
<path style="stroke: rgb(212,0,0); stroke-width: 1; stroke-dasharray: none; stroke-linecap: butt; stroke-dashoffset: 0; stroke-linejoin: miter; stroke-miterlimit: 4; fill: rgb(255,102,0); fill-rule: nonzero; opacity: 1;" vector-effect="non-scaling-stroke"  transform=" translate(-102.48, -603.23)" d="M 120.13797 581.36414 L 37.716668999999996 636.87237 L 167.23586 571.27174 L 121.82004 569.58966 L 120.13797000000001 581.36414 z" stroke-linecap="round" />
</g>
</g>
</g>
<g transform="matrix(2.24 0 0 2.24 656.07 200)" id="efe1c31d-2254-46dc-b791-b886065ecf14"  >
<path style="stroke: rgb(0,0,0); stroke-width: 0; stroke-dasharray: none; stroke-linecap: butt; stroke-dashoffset: 0; stroke-linejoin: miter; stroke-miterlimit: 4; fill: rgb(204,204,204); fill-rule: nonzero; opacity: 1;" vector-effect="non-scaling-stroke"  transform=" translate(-165.03, 21.18)" d="M 27.84 -9.86 L 27.84 -9.86 L 27.84 -9.86 Q 29.06 -8.32 29.06 -5.34 L 29.06 -5.34 L 29.06 -5.34 Q 29.06 -2.37 26.78 -0.54 L 26.78 -0.54 L 26.78 -0.54 Q 24.51 1.28 20.54 1.28 L 20.54 1.28 L 20.54 1.28 Q 18.24 1.28 14.66 0.77 L 14.66 0.77 L 14.66 0.77 Q 7.62 -0.32 5.6 -0.32 L 5.6 -0.32 L 5.6 -0.32 Q 3.58 -0.32 2.75 -0.22 L 2.75 -0.22 L 2.75 -0.22 Q 1.92 -0.13 0.58 0 L 0.58 0 L 8.32 -42.24 L 22.34 -42.24 L 15.94 -7.04 L 15.94 -7.04 Q 16.77 -6.91 17.54 -6.91 L 17.54 -6.91 L 19.14 -6.91 L 19.14 -6.91 Q 24.51 -6.91 27.84 -9.86 Z M 46.59 0 L 32.64 0 L 40.77 -42.24 L 54.85 -42.24 L 46.59 0 Z M 82.18 -20.61 L 95.1 -21.76 L 95.1 -21.76 Q 90.5 -11.65 90.5 0.06 L 90.5 0.06 L 90.5 0.06 Q 88.77 1.28 86.24 1.28 L 86.24 1.28 L 86.24 1.28 Q 83.71 1.28 82.11 0.1 L 82.11 0.1 L 82.11 0.1 Q 80.51 -1.09 80.19 -2.3 L 80.19 -2.3 L 80.19 -2.3 Q 78.59 -0.64 76 0.32 L 76 0.32 L 76 0.32 Q 73.41 1.28 70.66 1.28 L 70.66 1.28 L 70.66 1.28 Q 67.9 1.28 65.5 0.38 L 65.5 0.38 L 65.5 0.38 Q 63.1 -0.51 61.25 -2.5 L 61.25 -2.5 L 61.25 -2.5 Q 57.15 -6.85 57.15 -15.1 L 57.15 -15.1 L 57.15 -15.1 Q 57.15 -27.9 64 -35.58 L 64 -35.58 L 64 -35.58 Q 71.04 -43.52 83.52 -43.52 L 83.52 -43.52 L 83.52 -43.52 Q 92.16 -43.52 95.23 -39.04 L 95.23 -39.04 L 95.23 -39.04 Q 96.19 -37.63 96.19 -35.94 L 96.19 -35.94 L 96.19 -35.94 Q 96.19 -34.24 95.46 -32.8 L 95.46 -32.8 L 95.46 -32.8 Q 94.72 -31.36 93.57 -30.21 L 93.57 -30.21 L 93.57 -30.21 Q 90.82 -27.65 87.42 -27.65 L 87.42 -27.65 L 87.42 -27.65 Q 86.08 -27.65 84.8 -28.1 L 84.8 -28.1 L 84.8 -28.1 Q 85.06 -30.02 85.06 -32.26 L 85.06 -32.26 L 85.06 -32.26 Q 85.06 -34.5 84.9 -35.52 L 84.9 -35.52 L 84.9 -35.52 Q 84.74 -36.54 84.35 -37.38 L 84.35 -37.38 L 84.35 -37.38 Q 83.52 -39.1 81.7 -39.1 L 81.7 -39.1 L 81.7 -39.1 Q 79.87 -39.1 77.86 -37.15 L 77.86 -37.15 L 77.86 -37.15 Q 75.84 -35.2 74.24 -32 L 74.24 -32 L 74.24 -32 Q 70.72 -24.83 70.72 -16.19 L 70.72 -16.19 L 70.72 -16.19 Q 70.72 -12.22 72.26 -9.41 L 72.26 -9.41 L 72.26 -9.41 Q 73.92 -6.34 76.86 -6.34 L 76.86 -6.34 L 76.86 -6.34 Q 77.89 -6.34 78.82 -6.85 L 78.82 -6.85 L 78.82 -6.85 Q 79.74 -7.36 80.13 -7.74 L 80.13 -7.74 L 82.18 -20.61 Z M 122.11 -4.8 L 122.11 -4.8 L 122.11 -4.8 Q 122.11 -9.28 123.9 -18.24 L 123.9 -18.24 L 114.43 -18.24 L 110.91 0 L 97.54 0 L 105.66 -42.24 L 119.17 -42.24 L 115.46 -23.36 L 124.93 -23.36 L 128.45 -42.24 L 141.95 -42.24 L 141.95 -42.24 Q 141.06 -37.5 139.9 -32.19 L 139.9 -32.19 L 137.73 -21.76 L 137.73 -21.76 Q 135.3 -9.6 135.3 -4.29 L 135.3 -4.29 L 135.3 -4.29 Q 135.3 -2.11 136 -0.9 L 136 -0.9 L 136 -0.9 Q 132.8 1.28 129.06 1.28 L 129.06 1.28 L 129.06 1.28 Q 125.31 1.28 123.71 -0.51 L 123.71 -0.51 L 123.71 -0.51 Q 122.11 -2.3 122.11 -4.8 Z M 148.61 -31.17 L 148.61 -31.17 L 148.61 -31.17 Q 146.43 -32.83 146.43 -36.38 L 146.43 -36.38 L 146.43 -36.38 Q 146.43 -39.94 148.77 -41.79 L 148.77 -41.79 L 148.77 -41.79 Q 151.1 -43.65 155.14 -43.65 L 155.14 -43.65 L 155.14 -43.65 Q 157.7 -43.65 163.78 -42.75 L 163.78 -42.75 L 168.13 -42.11 L 168.13 -42.11 Q 170.3 -41.86 172.58 -41.86 L 172.58 -41.86 L 172.58 -41.86 Q 174.85 -41.86 176.38 -42.82 L 176.38 -42.82 L 176.38 -42.82 Q 178.69 -40.77 178.69 -37.82 L 178.69 -37.82 L 178.69 -37.82 Q 178.69 -34.88 176.06 -32.77 L 176.06 -32.77 L 176.06 -32.77 Q 173.38 -30.53 169.92 -30.53 L 169.92 -30.53 L 169.92 -30.53 Q 168.26 -30.53 165.57 -30.98 L 165.57 -30.98 L 165.57 -30.98 Q 162.43 -21.12 162.43 -14.27 L 162.43 -14.27 L 162.43 -14.27 Q 162.43 -7.42 165.89 -3.84 L 165.89 -3.84 L 165.89 -3.84 Q 164.29 -0.96 161.92 0.16 L 161.92 0.16 L 161.92 0.16 Q 159.55 1.28 156 1.28 L 156 1.28 L 156 1.28 Q 152.45 1.28 150.24 -0.67 L 150.24 -0.67 L 150.24 -0.67 Q 148.03 -2.62 148.03 -6.66 L 148.03 -6.66 L 148.03 -6.66 Q 148.03 -11.33 150.59 -19.01 L 150.59 -19.01 L 150.59 -19.01 Q 153.15 -26.62 156.99 -32.45 L 156.99 -32.45 L 156.99 -32.45 Q 155.14 -32.64 153.22 -32.64 L 153.22 -32.64 L 153.22 -32.64 Q 149.25 -32.64 148.61 -31.17 Z M 183.23 0 L 176.19 0 L 183.87 -42.24 L 197.63 -42.24 L 207.62 -13.18 L 212.93 -42.24 L 220.03 -42.18 L 212.22 0 L 197.57 0 L 188.35 -27.97 L 183.23 0 Z M 234.88 0 L 220.93 0 L 229.06 -42.24 L 243.14 -42.24 L 234.88 0 Z M 251.14 0 L 244.1 0 L 251.78 -42.24 L 265.54 -42.24 L 275.52 -13.18 L 280.83 -42.24 L 287.94 -42.18 L 280.13 0 L 265.47 0 L 256.26 -27.97 L 251.14 0 Z M 315.46 -20.61 L 328.38 -21.76 L 328.38 -21.76 Q 323.78 -11.65 323.78 0.06 L 323.78 0.06 L 323.78 0.06 Q 322.05 1.28 319.52 1.28 L 319.52 1.28 L 319.52 1.28 Q 316.99 1.28 315.39 0.1 L 315.39 0.1 L 315.39 0.1 Q 313.79 -1.09 313.47 -2.3 L 313.47 -2.3 L 313.47 -2.3 Q 311.87 -0.64 309.28 0.32 L 309.28 0.32 L 309.28 0.32 Q 306.69 1.28 303.94 1.28 L 303.94 1.28 L 303.94 1.28 Q 301.18 1.28 298.78 0.38 L 298.78 0.38 L 298.78 0.38 Q 296.38 -0.51 294.53 -2.5 L 294.53 -2.5 L 294.53 -2.5 Q 290.43 -6.85 290.43 -15.1 L 290.43 -15.1 L 290.43 -15.1 Q 290.43 -27.9 297.28 -35.58 L 297.28 -35.58 L 297.28 -35.58 Q 304.32 -43.52 316.8 -43.52 L 316.8 -43.52 L 316.8 -43.52 Q 325.44 -43.52 328.51 -39.04 L 328.51 -39.04 L 328.51 -39.04 Q 329.47 -37.63 329.47 -35.94 L 329.47 -35.94 L 329.47 -35.94 Q 329.47 -34.24 328.74 -32.8 L 328.74 -32.8 L 328.74 -32.8 Q 328 -31.36 326.85 -30.21 L 326.85 -30.21 L 326.85 -30.21 Q 324.1 -27.65 320.7 -27.65 L 320.7 -27.65 L 320.7 -27.65 Q 319.36 -27.65 318.08 -28.1 L 318.08 -28.1 L 318.08 -28.1 Q 318.34 -30.02 318.34 -32.26 L 318.34 -32.26 L 318.34 -32.26 Q 318.34 -34.5 318.18 -35.52 L 318.18 -35.52 L 318.18 -35.52 Q 318.02 -36.54 317.63 -37.38 L 317.63 -37.38 L 317.63 -37.38 Q 316.8 -39.1 314.98 -39.1 L 314.98 -39.1 L 314.98 -39.1 Q 313.15 -39.1 311.14 -37.15 L 311.14 -37.15 L 311.14 -37.15 Q 309.12 -35.2 307.52 -32 L 307.52 -32 L 307.52 -32 Q 304 -24.83 304 -16.19 L 304 -16.19 L 304 -16.19 Q 304 -12.22 305.54 -9.41 L 305.54 -9.41 L 305.54 -9.41 Q 307.2 -6.34 310.14 -6.34 L 310.14 -6.34 L 310.14 -6.34 Q 311.17 -6.34 312.1 -6.85 L 312.1 -6.85 L 312.1 -6.85 Q 313.02 -7.36 313.41 -7.74 L 313.41 -7.74 L 315.46 -20.61 Z" stroke-linecap="round" />
</g>
</svg>